<mxfile host="app.diagrams.net" modified="2020-10-23T14:09:11.665Z" agent="5.0 (Macintosh; Intel Mac OS X 10_13_6) AppleWebKit/537.36 (KHTML, like Gecko) Chrome/86.0.4240.111 Safari/537.36" etag="cG24u7VzTwwwvriw363b" version="13.8.0" type="github">
  <diagram id="quahke69b41GjBQrwAtP" name="Page-1">
    <mxGraphModel dx="3530" dy="1846" grid="1" gridSize="10" guides="1" tooltips="1" connect="1" arrows="1" fold="1" page="1" pageScale="1" pageWidth="827" pageHeight="1169" math="0" shadow="0">
      <root>
        <mxCell id="0" />
        <mxCell id="1" parent="0" />
        <mxCell id="AzaPjYQSyTYs8AsfRoAB-20" value="" style="rounded=0;whiteSpace=wrap;html=1;fillColor=#e51400;strokeColor=#B20000;fontColor=#ffffff;" vertex="1" parent="1">
          <mxGeometry x="74" y="170" width="20" height="90" as="geometry" />
        </mxCell>
        <mxCell id="AzaPjYQSyTYs8AsfRoAB-23" value="......." style="rounded=0;whiteSpace=wrap;html=1;fillColor=#d5e8d4;strokeColor=#82b366;fontSize=30;" vertex="1" parent="1">
          <mxGeometry x="94" y="171" width="1530" height="90" as="geometry" />
        </mxCell>
        <mxCell id="AzaPjYQSyTYs8AsfRoAB-24" value="" style="rounded=0;whiteSpace=wrap;html=1;fillColor=#d5e8d4;strokeColor=#82b366;dashed=1;" vertex="1" parent="1">
          <mxGeometry x="1624" y="171" width="360" height="90" as="geometry" />
        </mxCell>
        <mxCell id="AzaPjYQSyTYs8AsfRoAB-27" style="edgeStyle=orthogonalEdgeStyle;rounded=0;orthogonalLoop=1;jettySize=auto;html=1;exitX=0.5;exitY=1;exitDx=0;exitDy=0;entryX=1;entryY=0;entryDx=0;entryDy=0;fontSize=20;" edge="1" parent="1" source="AzaPjYQSyTYs8AsfRoAB-26" target="AzaPjYQSyTYs8AsfRoAB-23">
          <mxGeometry relative="1" as="geometry" />
        </mxCell>
        <mxCell id="AzaPjYQSyTYs8AsfRoAB-26" value="cap" style="text;html=1;strokeColor=none;fillColor=none;align=center;verticalAlign=middle;whiteSpace=wrap;rounded=0;dashed=1;fontSize=30;" vertex="1" parent="1">
          <mxGeometry x="1604" y="121" width="40" height="20" as="geometry" />
        </mxCell>
        <mxCell id="AzaPjYQSyTYs8AsfRoAB-29" style="edgeStyle=orthogonalEdgeStyle;rounded=0;orthogonalLoop=1;jettySize=auto;html=1;exitX=0.5;exitY=0;exitDx=0;exitDy=0;entryX=1;entryY=1;entryDx=0;entryDy=0;fontSize=20;" edge="1" parent="1" source="AzaPjYQSyTYs8AsfRoAB-28" target="AzaPjYQSyTYs8AsfRoAB-20">
          <mxGeometry relative="1" as="geometry" />
        </mxCell>
        <mxCell id="AzaPjYQSyTYs8AsfRoAB-28" value="head&lt;br&gt;tail&lt;br&gt;rightMargin" style="text;html=1;strokeColor=none;fillColor=none;align=center;verticalAlign=middle;whiteSpace=wrap;rounded=0;dashed=1;fontSize=30;" vertex="1" parent="1">
          <mxGeometry x="15.75" y="300" width="156.5" height="100" as="geometry" />
        </mxCell>
        <mxCell id="AzaPjYQSyTYs8AsfRoAB-31" style="edgeStyle=orthogonalEdgeStyle;rounded=0;orthogonalLoop=1;jettySize=auto;html=1;exitX=0.5;exitY=1;exitDx=0;exitDy=0;entryX=1;entryY=0;entryDx=0;entryDy=0;fontSize=20;" edge="1" parent="1" source="AzaPjYQSyTYs8AsfRoAB-30" target="AzaPjYQSyTYs8AsfRoAB-24">
          <mxGeometry relative="1" as="geometry" />
        </mxCell>
        <mxCell id="AzaPjYQSyTYs8AsfRoAB-30" value="maxCap" style="text;html=1;strokeColor=none;fillColor=none;align=center;verticalAlign=middle;whiteSpace=wrap;rounded=0;dashed=1;fontSize=30;" vertex="1" parent="1">
          <mxGeometry x="1964" y="121" width="40" height="20" as="geometry" />
        </mxCell>
        <mxCell id="AzaPjYQSyTYs8AsfRoAB-32" value="1byte" style="text;html=1;strokeColor=none;fillColor=none;align=center;verticalAlign=middle;whiteSpace=wrap;rounded=0;dashed=1;fontSize=30;" vertex="1" parent="1">
          <mxGeometry x="-20" y="210" width="70" height="20" as="geometry" />
        </mxCell>
        <mxCell id="AzaPjYQSyTYs8AsfRoAB-33" value="" style="rounded=0;whiteSpace=wrap;html=1;fillColor=#e51400;strokeColor=#B20000;fontColor=#ffffff;" vertex="1" parent="1">
          <mxGeometry x="86.06" y="675" width="20" height="90" as="geometry" />
        </mxCell>
        <mxCell id="AzaPjYQSyTYs8AsfRoAB-34" value="......" style="rounded=0;whiteSpace=wrap;html=1;fillColor=#d5e8d4;strokeColor=#82b366;fontSize=30;" vertex="1" parent="1">
          <mxGeometry x="786.06" y="675" width="850" height="90" as="geometry" />
        </mxCell>
        <mxCell id="AzaPjYQSyTYs8AsfRoAB-35" value="" style="rounded=0;whiteSpace=wrap;html=1;fillColor=#d5e8d4;strokeColor=#82b366;dashed=1;" vertex="1" parent="1">
          <mxGeometry x="1636.06" y="675" width="360" height="90" as="geometry" />
        </mxCell>
        <mxCell id="AzaPjYQSyTYs8AsfRoAB-36" style="edgeStyle=orthogonalEdgeStyle;rounded=0;orthogonalLoop=1;jettySize=auto;html=1;exitX=0.5;exitY=1;exitDx=0;exitDy=0;entryX=1;entryY=0;entryDx=0;entryDy=0;fontSize=20;" edge="1" parent="1" source="AzaPjYQSyTYs8AsfRoAB-37" target="AzaPjYQSyTYs8AsfRoAB-34">
          <mxGeometry relative="1" as="geometry" />
        </mxCell>
        <mxCell id="AzaPjYQSyTYs8AsfRoAB-37" value="cap" style="text;html=1;strokeColor=none;fillColor=none;align=center;verticalAlign=middle;whiteSpace=wrap;rounded=0;dashed=1;fontSize=30;" vertex="1" parent="1">
          <mxGeometry x="1616.06" y="625" width="40" height="20" as="geometry" />
        </mxCell>
        <mxCell id="AzaPjYQSyTYs8AsfRoAB-40" style="edgeStyle=orthogonalEdgeStyle;rounded=0;orthogonalLoop=1;jettySize=auto;html=1;exitX=0.5;exitY=1;exitDx=0;exitDy=0;entryX=1;entryY=0;entryDx=0;entryDy=0;fontSize=20;" edge="1" parent="1" source="AzaPjYQSyTYs8AsfRoAB-41" target="AzaPjYQSyTYs8AsfRoAB-35">
          <mxGeometry relative="1" as="geometry" />
        </mxCell>
        <mxCell id="AzaPjYQSyTYs8AsfRoAB-41" value="maxCap" style="text;html=1;strokeColor=none;fillColor=none;align=center;verticalAlign=middle;whiteSpace=wrap;rounded=0;dashed=1;fontSize=30;" vertex="1" parent="1">
          <mxGeometry x="1976.06" y="625" width="40" height="20" as="geometry" />
        </mxCell>
        <mxCell id="AzaPjYQSyTYs8AsfRoAB-43" value="4Byte" style="rounded=0;whiteSpace=wrap;html=1;fillColor=#e1d5e7;strokeColor=#9673a6;fontSize=15;" vertex="1" parent="1">
          <mxGeometry x="106.06" y="675" width="40" height="90" as="geometry" />
        </mxCell>
        <mxCell id="AzaPjYQSyTYs8AsfRoAB-58" style="edgeStyle=orthogonalEdgeStyle;rounded=0;orthogonalLoop=1;jettySize=auto;html=1;exitX=0.5;exitY=1;exitDx=0;exitDy=0;fontSize=30;" edge="1" parent="1" source="AzaPjYQSyTYs8AsfRoAB-56" target="AzaPjYQSyTYs8AsfRoAB-43">
          <mxGeometry relative="1" as="geometry" />
        </mxCell>
        <mxCell id="AzaPjYQSyTYs8AsfRoAB-56" value="HeaderSize" style="text;html=1;strokeColor=none;fillColor=none;align=center;verticalAlign=middle;whiteSpace=wrap;rounded=0;dashed=1;fontSize=30;" vertex="1" parent="1">
          <mxGeometry x="31.060000000000002" y="585" width="190" height="20" as="geometry" />
        </mxCell>
        <mxCell id="AzaPjYQSyTYs8AsfRoAB-59" value="" style="rounded=0;whiteSpace=wrap;html=1;fillColor=#dae8fc;strokeColor=#6c8ebf;fontSize=30;" vertex="1" parent="1">
          <mxGeometry x="546.06" y="675" width="240" height="90" as="geometry" />
        </mxCell>
        <mxCell id="AzaPjYQSyTYs8AsfRoAB-60" value="4Byte" style="rounded=0;whiteSpace=wrap;html=1;fillColor=#e1d5e7;strokeColor=#9673a6;fontSize=15;" vertex="1" parent="1">
          <mxGeometry x="506.06" y="675" width="40" height="90" as="geometry" />
        </mxCell>
        <mxCell id="AzaPjYQSyTYs8AsfRoAB-68" value="" style="group" vertex="1" connectable="0" parent="1">
          <mxGeometry x="146.06" y="625" width="360" height="140" as="geometry" />
        </mxCell>
        <mxCell id="AzaPjYQSyTYs8AsfRoAB-2" value="" style="rounded=0;whiteSpace=wrap;html=1;fillColor=#dae8fc;strokeColor=#6c8ebf;fontSize=30;" vertex="1" parent="AzaPjYQSyTYs8AsfRoAB-68">
          <mxGeometry y="50" width="360" height="90" as="geometry" />
        </mxCell>
        <mxCell id="AzaPjYQSyTYs8AsfRoAB-54" style="edgeStyle=orthogonalEdgeStyle;rounded=0;orthogonalLoop=1;jettySize=auto;html=1;exitX=0;exitY=0.5;exitDx=0;exitDy=0;fontSize=30;" edge="1" parent="AzaPjYQSyTYs8AsfRoAB-68" source="AzaPjYQSyTYs8AsfRoAB-51">
          <mxGeometry relative="1" as="geometry">
            <mxPoint y="20" as="targetPoint" />
          </mxGeometry>
        </mxCell>
        <mxCell id="AzaPjYQSyTYs8AsfRoAB-55" style="edgeStyle=orthogonalEdgeStyle;rounded=0;orthogonalLoop=1;jettySize=auto;html=1;exitX=1;exitY=0.5;exitDx=0;exitDy=0;fontSize=30;" edge="1" parent="AzaPjYQSyTYs8AsfRoAB-68" source="AzaPjYQSyTYs8AsfRoAB-51">
          <mxGeometry relative="1" as="geometry">
            <mxPoint x="360" y="20" as="targetPoint" />
          </mxGeometry>
        </mxCell>
        <mxCell id="AzaPjYQSyTYs8AsfRoAB-51" value="Entry" style="text;html=1;strokeColor=none;fillColor=none;align=center;verticalAlign=middle;whiteSpace=wrap;rounded=0;dashed=1;fontSize=30;" vertex="1" parent="AzaPjYQSyTYs8AsfRoAB-68">
          <mxGeometry x="80" y="10" width="178.24" height="20" as="geometry" />
        </mxCell>
        <mxCell id="AzaPjYQSyTYs8AsfRoAB-52" value="" style="endArrow=none;html=1;fontSize=30;exitX=1;exitY=0;exitDx=0;exitDy=0;" edge="1" parent="AzaPjYQSyTYs8AsfRoAB-68" source="AzaPjYQSyTYs8AsfRoAB-43">
          <mxGeometry width="50" height="50" relative="1" as="geometry">
            <mxPoint x="-10.588235294117649" y="50" as="sourcePoint" />
            <mxPoint as="targetPoint" />
          </mxGeometry>
        </mxCell>
        <mxCell id="AzaPjYQSyTYs8AsfRoAB-53" value="" style="endArrow=none;html=1;fontSize=30;exitX=1;exitY=0;exitDx=0;exitDy=0;" edge="1" parent="AzaPjYQSyTYs8AsfRoAB-68" source="AzaPjYQSyTYs8AsfRoAB-2">
          <mxGeometry width="50" height="50" relative="1" as="geometry">
            <mxPoint x="5.294117647058824" y="60" as="sourcePoint" />
            <mxPoint x="360" as="targetPoint" />
          </mxGeometry>
        </mxCell>
        <mxCell id="AzaPjYQSyTYs8AsfRoAB-70" style="edgeStyle=orthogonalEdgeStyle;rounded=0;orthogonalLoop=1;jettySize=auto;html=1;exitX=0.5;exitY=0;exitDx=0;exitDy=0;entryX=1;entryY=1;entryDx=0;entryDy=0;fontSize=30;" edge="1" parent="1" source="AzaPjYQSyTYs8AsfRoAB-69" target="AzaPjYQSyTYs8AsfRoAB-33">
          <mxGeometry relative="1" as="geometry" />
        </mxCell>
        <mxCell id="AzaPjYQSyTYs8AsfRoAB-69" value="head&lt;br&gt;leftMargin" style="text;html=1;strokeColor=none;fillColor=none;align=center;verticalAlign=middle;whiteSpace=wrap;rounded=0;dashed=1;fontSize=30;" vertex="1" parent="1">
          <mxGeometry x="57.06" y="825" width="97.5" height="60" as="geometry" />
        </mxCell>
        <mxCell id="AzaPjYQSyTYs8AsfRoAB-72" style="edgeStyle=orthogonalEdgeStyle;rounded=0;orthogonalLoop=1;jettySize=auto;html=1;exitX=0.5;exitY=0;exitDx=0;exitDy=0;entryX=1;entryY=1;entryDx=0;entryDy=0;fontSize=30;" edge="1" parent="1" source="AzaPjYQSyTYs8AsfRoAB-71" target="AzaPjYQSyTYs8AsfRoAB-59">
          <mxGeometry relative="1" as="geometry" />
        </mxCell>
        <mxCell id="AzaPjYQSyTYs8AsfRoAB-71" value="tail&lt;br&gt;rightMargin" style="text;html=1;strokeColor=none;fillColor=none;align=center;verticalAlign=middle;whiteSpace=wrap;rounded=0;dashed=1;fontSize=30;" vertex="1" parent="1">
          <mxGeometry x="694.06" y="835" width="184" height="60" as="geometry" />
        </mxCell>
        <mxCell id="AzaPjYQSyTYs8AsfRoAB-75" style="edgeStyle=orthogonalEdgeStyle;rounded=0;orthogonalLoop=1;jettySize=auto;html=1;exitX=0.5;exitY=1;exitDx=0;exitDy=0;entryX=1;entryY=0;entryDx=0;entryDy=0;fontSize=20;" edge="1" parent="1" source="AzaPjYQSyTYs8AsfRoAB-76">
          <mxGeometry relative="1" as="geometry">
            <mxPoint x="94" y="170.00000000000023" as="targetPoint" />
          </mxGeometry>
        </mxCell>
        <mxCell id="AzaPjYQSyTYs8AsfRoAB-76" value="leftMargin" style="text;html=1;strokeColor=none;fillColor=none;align=center;verticalAlign=middle;whiteSpace=wrap;rounded=0;dashed=1;fontSize=30;" vertex="1" parent="1">
          <mxGeometry x="74" y="120" width="40" height="20" as="geometry" />
        </mxCell>
        <mxCell id="AzaPjYQSyTYs8AsfRoAB-77" value="" style="endArrow=none;dashed=1;html=1;fontSize=30;entryX=0;entryY=1;entryDx=0;entryDy=0;exitX=0;exitY=0;exitDx=0;exitDy=0;" edge="1" parent="1" source="AzaPjYQSyTYs8AsfRoAB-45" target="AzaPjYQSyTYs8AsfRoAB-2">
          <mxGeometry width="50" height="50" relative="1" as="geometry">
            <mxPoint x="-178.94" y="1085" as="sourcePoint" />
            <mxPoint x="-128.94" y="1035" as="targetPoint" />
          </mxGeometry>
        </mxCell>
        <mxCell id="AzaPjYQSyTYs8AsfRoAB-78" value="" style="endArrow=none;dashed=1;html=1;fontSize=30;entryX=1;entryY=1;entryDx=0;entryDy=0;exitX=1;exitY=0;exitDx=0;exitDy=0;" edge="1" parent="1" source="AzaPjYQSyTYs8AsfRoAB-48" target="AzaPjYQSyTYs8AsfRoAB-2">
          <mxGeometry width="50" height="50" relative="1" as="geometry">
            <mxPoint x="-278.94" y="1045" as="sourcePoint" />
            <mxPoint x="-228.94" y="995" as="targetPoint" />
          </mxGeometry>
        </mxCell>
        <mxCell id="AzaPjYQSyTYs8AsfRoAB-79" value="" style="group" vertex="1" connectable="0" parent="1">
          <mxGeometry x="146.06" y="1005" width="1305" height="90" as="geometry" />
        </mxCell>
        <mxCell id="AzaPjYQSyTYs8AsfRoAB-47" value="key" style="rounded=0;whiteSpace=wrap;html=1;fillColor=#e1d5e7;strokeColor=#9673a6;fontSize=30;" vertex="1" parent="AzaPjYQSyTYs8AsfRoAB-79">
          <mxGeometry x="680" width="275" height="90" as="geometry" />
        </mxCell>
        <mxCell id="AzaPjYQSyTYs8AsfRoAB-48" value="&lt;font style=&quot;font-size: 30px&quot;&gt;value&lt;/font&gt;" style="rounded=0;whiteSpace=wrap;html=1;fillColor=#e1d5e7;strokeColor=#9673a6;fontSize=30;" vertex="1" parent="AzaPjYQSyTYs8AsfRoAB-79">
          <mxGeometry x="955" width="555" height="90" as="geometry" />
        </mxCell>
        <mxCell id="AzaPjYQSyTYs8AsfRoAB-81" value="" style="group" vertex="1" connectable="0" parent="AzaPjYQSyTYs8AsfRoAB-79">
          <mxGeometry width="680" height="90" as="geometry" />
        </mxCell>
        <mxCell id="AzaPjYQSyTYs8AsfRoAB-80" value="" style="group;fontSize=30;" vertex="1" connectable="0" parent="AzaPjYQSyTYs8AsfRoAB-81">
          <mxGeometry width="680" height="90" as="geometry" />
        </mxCell>
        <mxCell id="AzaPjYQSyTYs8AsfRoAB-45" value="timestamp" style="rounded=0;whiteSpace=wrap;html=1;fillColor=#dae8fc;strokeColor=#6c8ebf;fontSize=30;" vertex="1" parent="AzaPjYQSyTYs8AsfRoAB-80">
          <mxGeometry width="280" height="90" as="geometry" />
        </mxCell>
        <mxCell id="AzaPjYQSyTYs8AsfRoAB-46" value="keySize" style="rounded=0;whiteSpace=wrap;html=1;fillColor=#dae8fc;strokeColor=#6c8ebf;fontSize=30;" vertex="1" parent="AzaPjYQSyTYs8AsfRoAB-80">
          <mxGeometry x="560" width="120" height="90" as="geometry" />
        </mxCell>
        <mxCell id="AzaPjYQSyTYs8AsfRoAB-49" value="hashSize" style="rounded=0;whiteSpace=wrap;html=1;fillColor=#dae8fc;strokeColor=#6c8ebf;fontSize=30;" vertex="1" parent="AzaPjYQSyTYs8AsfRoAB-80">
          <mxGeometry x="280" width="280" height="90" as="geometry" />
        </mxCell>
        <mxCell id="AzaPjYQSyTYs8AsfRoAB-91" style="edgeStyle=orthogonalEdgeStyle;rounded=0;orthogonalLoop=1;jettySize=auto;html=1;exitX=0;exitY=0.5;exitDx=0;exitDy=0;fontSize=30;" edge="1" parent="1" source="AzaPjYQSyTYs8AsfRoAB-88">
          <mxGeometry relative="1" as="geometry">
            <mxPoint x="791.06" y="805.3333333333335" as="targetPoint" />
          </mxGeometry>
        </mxCell>
        <mxCell id="AzaPjYQSyTYs8AsfRoAB-92" style="edgeStyle=orthogonalEdgeStyle;rounded=0;orthogonalLoop=1;jettySize=auto;html=1;exitX=1;exitY=0.5;exitDx=0;exitDy=0;fontSize=30;" edge="1" parent="1" source="AzaPjYQSyTYs8AsfRoAB-88">
          <mxGeometry relative="1" as="geometry">
            <mxPoint x="1631.06" y="805.3333333333335" as="targetPoint" />
          </mxGeometry>
        </mxCell>
        <mxCell id="AzaPjYQSyTYs8AsfRoAB-88" value="availableSpaceAfterTail" style="text;html=1;strokeColor=none;fillColor=none;align=center;verticalAlign=middle;whiteSpace=wrap;rounded=0;dashed=1;fontSize=30;" vertex="1" parent="1">
          <mxGeometry x="1031.0600000000002" y="795" width="349.12" height="20" as="geometry" />
        </mxCell>
        <mxCell id="AzaPjYQSyTYs8AsfRoAB-89" value="" style="endArrow=none;html=1;fontSize=30;exitX=1;exitY=0;exitDx=0;exitDy=0;" edge="1" parent="1">
          <mxGeometry width="50" height="50" relative="1" as="geometry">
            <mxPoint x="786.0600000000004" y="820" as="sourcePoint" />
            <mxPoint x="786.0600000000004" y="770" as="targetPoint" />
          </mxGeometry>
        </mxCell>
        <mxCell id="AzaPjYQSyTYs8AsfRoAB-90" value="" style="endArrow=none;html=1;fontSize=30;exitX=1;exitY=0;exitDx=0;exitDy=0;" edge="1" parent="1">
          <mxGeometry width="50" height="50" relative="1" as="geometry">
            <mxPoint x="1636.0600000000004" y="815" as="sourcePoint" />
            <mxPoint x="1636.0600000000004" y="765" as="targetPoint" />
          </mxGeometry>
        </mxCell>
        <mxCell id="AzaPjYQSyTYs8AsfRoAB-93" value="" style="rounded=0;whiteSpace=wrap;html=1;fillColor=#e51400;strokeColor=#B20000;fontColor=#ffffff;" vertex="1" parent="1">
          <mxGeometry x="66.06" y="1420" width="23.25" height="90" as="geometry" />
        </mxCell>
        <mxCell id="AzaPjYQSyTYs8AsfRoAB-95" value="" style="rounded=0;whiteSpace=wrap;html=1;fillColor=#d5e8d4;strokeColor=#82b366;dashed=1;" vertex="1" parent="1">
          <mxGeometry x="1616.06" y="1420" width="360" height="90" as="geometry" />
        </mxCell>
        <mxCell id="AzaPjYQSyTYs8AsfRoAB-97" value="cap" style="text;html=1;strokeColor=none;fillColor=none;align=center;verticalAlign=middle;whiteSpace=wrap;rounded=0;dashed=1;fontSize=30;" vertex="1" parent="1">
          <mxGeometry x="1596.06" y="1370" width="40" height="20" as="geometry" />
        </mxCell>
        <mxCell id="AzaPjYQSyTYs8AsfRoAB-98" style="edgeStyle=orthogonalEdgeStyle;rounded=0;orthogonalLoop=1;jettySize=auto;html=1;exitX=0.5;exitY=1;exitDx=0;exitDy=0;entryX=1;entryY=0;entryDx=0;entryDy=0;fontSize=20;" edge="1" parent="1" source="AzaPjYQSyTYs8AsfRoAB-99" target="AzaPjYQSyTYs8AsfRoAB-95">
          <mxGeometry relative="1" as="geometry" />
        </mxCell>
        <mxCell id="AzaPjYQSyTYs8AsfRoAB-99" value="maxCap" style="text;html=1;strokeColor=none;fillColor=none;align=center;verticalAlign=middle;whiteSpace=wrap;rounded=0;dashed=1;fontSize=30;" vertex="1" parent="1">
          <mxGeometry x="1956.06" y="1370" width="40" height="20" as="geometry" />
        </mxCell>
        <mxCell id="AzaPjYQSyTYs8AsfRoAB-126" value="&lt;font style=&quot;font-size: 25px&quot;&gt;availableSpaceBeforeHead&lt;/font&gt;" style="text;html=1;strokeColor=none;fillColor=none;align=center;verticalAlign=middle;whiteSpace=wrap;rounded=0;dashed=1;fontSize=30;" vertex="1" parent="1">
          <mxGeometry x="83.39999999999995" y="1380" width="349.12" height="20" as="geometry" />
        </mxCell>
        <mxCell id="AzaPjYQSyTYs8AsfRoAB-127" value="" style="endArrow=none;html=1;fontSize=30;exitX=1;exitY=0;exitDx=0;exitDy=0;" edge="1" parent="1">
          <mxGeometry width="50" height="50" relative="1" as="geometry">
            <mxPoint x="88.06" y="1420" as="sourcePoint" />
            <mxPoint x="88.06" y="1370" as="targetPoint" />
          </mxGeometry>
        </mxCell>
        <mxCell id="AzaPjYQSyTYs8AsfRoAB-128" value="" style="endArrow=none;html=1;fontSize=30;exitX=1;exitY=0;exitDx=0;exitDy=0;" edge="1" parent="1">
          <mxGeometry width="50" height="50" relative="1" as="geometry">
            <mxPoint x="427.25" y="1420" as="sourcePoint" />
            <mxPoint x="427.25" y="1370" as="targetPoint" />
          </mxGeometry>
        </mxCell>
        <mxCell id="AzaPjYQSyTYs8AsfRoAB-94" value="......" style="rounded=0;whiteSpace=wrap;html=1;fillColor=#d5e8d4;strokeColor=#82b366;fontSize=30;" vertex="1" parent="1">
          <mxGeometry x="1089.3030964052286" y="1420" width="526.7569035947712" height="90" as="geometry" />
        </mxCell>
        <mxCell id="AzaPjYQSyTYs8AsfRoAB-96" style="edgeStyle=orthogonalEdgeStyle;rounded=0;orthogonalLoop=1;jettySize=auto;html=1;exitX=0.5;exitY=1;exitDx=0;exitDy=0;entryX=1;entryY=0;entryDx=0;entryDy=0;fontSize=20;" edge="1" parent="1" source="AzaPjYQSyTYs8AsfRoAB-97" target="AzaPjYQSyTYs8AsfRoAB-94">
          <mxGeometry x="309.31" y="1420" as="geometry" />
        </mxCell>
        <mxCell id="AzaPjYQSyTYs8AsfRoAB-115" value="tail&lt;br&gt;rightMargin" style="text;html=1;strokeColor=none;fillColor=none;align=center;verticalAlign=middle;whiteSpace=wrap;rounded=0;dashed=1;fontSize=30;" vertex="1" parent="1">
          <mxGeometry x="1010.9408006535948" y="1580" width="157.1516339869281" height="60" as="geometry" />
        </mxCell>
        <mxCell id="AzaPjYQSyTYs8AsfRoAB-116" style="edgeStyle=orthogonalEdgeStyle;rounded=0;orthogonalLoop=1;jettySize=auto;html=1;exitX=0;exitY=0.5;exitDx=0;exitDy=0;fontSize=30;" edge="1" parent="1" source="AzaPjYQSyTYs8AsfRoAB-118">
          <mxGeometry x="309.31" y="1420" as="geometry">
            <mxPoint x="1089.3030964052286" y="1550" as="targetPoint" />
          </mxGeometry>
        </mxCell>
        <mxCell id="AzaPjYQSyTYs8AsfRoAB-117" style="edgeStyle=orthogonalEdgeStyle;rounded=0;orthogonalLoop=1;jettySize=auto;html=1;exitX=1;exitY=0.5;exitDx=0;exitDy=0;fontSize=30;" edge="1" parent="1" source="AzaPjYQSyTYs8AsfRoAB-118">
          <mxGeometry x="309.31" y="1420" as="geometry">
            <mxPoint x="1611.7895751633987" y="1550.3333333333335" as="targetPoint" />
          </mxGeometry>
        </mxCell>
        <mxCell id="AzaPjYQSyTYs8AsfRoAB-118" value="availableSpaceAfterTail" style="text;html=1;strokeColor=none;fillColor=none;align=center;verticalAlign=middle;whiteSpace=wrap;rounded=0;dashed=1;fontSize=30;" vertex="1" parent="1">
          <mxGeometry x="1179.83" y="1540" width="345.71" height="20" as="geometry" />
        </mxCell>
        <mxCell id="AzaPjYQSyTYs8AsfRoAB-120" value="" style="endArrow=none;html=1;fontSize=30;exitX=1;exitY=0;exitDx=0;exitDy=0;" edge="1" parent="1">
          <mxGeometry x="309.31" y="1420" width="50" height="50" as="geometry">
            <mxPoint x="1616.06" y="1560" as="sourcePoint" />
            <mxPoint x="1616.06" y="1510" as="targetPoint" />
          </mxGeometry>
        </mxCell>
        <mxCell id="AzaPjYQSyTYs8AsfRoAB-100" value="4Byte" style="rounded=0;whiteSpace=wrap;html=1;fillColor=#e1d5e7;strokeColor=#9673a6;fontSize=15;" vertex="1" parent="1">
          <mxGeometry x="426.8568363437328" y="1420" width="38.980186097427456" height="90" as="geometry" />
        </mxCell>
        <mxCell id="AzaPjYQSyTYs8AsfRoAB-103" value="entry" style="rounded=0;whiteSpace=wrap;html=1;fillColor=#dae8fc;strokeColor=#6c8ebf;fontSize=30;" vertex="1" parent="1">
          <mxGeometry x="855.6388834154347" y="1420" width="233.88111658456475" height="90" as="geometry" />
        </mxCell>
        <mxCell id="AzaPjYQSyTYs8AsfRoAB-104" value="4Byte" style="rounded=0;whiteSpace=wrap;html=1;fillColor=#e1d5e7;strokeColor=#9673a6;fontSize=15;" vertex="1" parent="1">
          <mxGeometry x="816.6586973180074" y="1420" width="38.980186097427456" height="90" as="geometry" />
        </mxCell>
        <mxCell id="AzaPjYQSyTYs8AsfRoAB-121" style="edgeStyle=orthogonalEdgeStyle;rounded=0;orthogonalLoop=1;jettySize=auto;html=1;exitX=0.5;exitY=0;exitDx=0;exitDy=0;entryX=0;entryY=1;entryDx=0;entryDy=0;fontSize=30;" edge="1" parent="1" source="AzaPjYQSyTYs8AsfRoAB-113" target="AzaPjYQSyTYs8AsfRoAB-100">
          <mxGeometry x="199.31" y="1420" as="geometry" />
        </mxCell>
        <mxCell id="AzaPjYQSyTYs8AsfRoAB-113" value="head" style="text;html=1;strokeColor=none;fillColor=none;align=center;verticalAlign=middle;whiteSpace=wrap;rounded=0;dashed=1;fontSize=30;" vertex="1" parent="1">
          <mxGeometry x="379.1061083743842" y="1580" width="95.01420361247943" height="20" as="geometry" />
        </mxCell>
        <mxCell id="AzaPjYQSyTYs8AsfRoAB-114" style="edgeStyle=orthogonalEdgeStyle;rounded=0;orthogonalLoop=1;jettySize=auto;html=1;exitX=0.5;exitY=0;exitDx=0;exitDy=0;entryX=1;entryY=1;entryDx=0;entryDy=0;fontSize=30;" edge="1" parent="1" source="AzaPjYQSyTYs8AsfRoAB-115" target="AzaPjYQSyTYs8AsfRoAB-103">
          <mxGeometry x="199.31" y="1420" as="geometry" />
        </mxCell>
        <mxCell id="AzaPjYQSyTYs8AsfRoAB-119" value="" style="endArrow=none;html=1;fontSize=30;exitX=1;exitY=0;exitDx=0;exitDy=0;" edge="1" parent="1">
          <mxGeometry x="199.31" y="1420" width="57.04963146074614" height="50" as="geometry">
            <mxPoint x="1089.52" y="1565" as="sourcePoint" />
            <mxPoint x="1089.52" y="1515" as="targetPoint" />
          </mxGeometry>
        </mxCell>
        <mxCell id="AzaPjYQSyTYs8AsfRoAB-106" value="entry" style="rounded=0;whiteSpace=wrap;html=1;fillColor=#dae8fc;strokeColor=#6c8ebf;fontSize=30;" vertex="1" parent="1">
          <mxGeometry x="465.83702244116034" y="1420" width="350.8216748768471" height="90" as="geometry" />
        </mxCell>
        <mxCell id="AzaPjYQSyTYs8AsfRoAB-122" value="......" style="rounded=0;whiteSpace=wrap;html=1;fillColor=#d5e8d4;strokeColor=#82b366;fontSize=30;" vertex="1" parent="1">
          <mxGeometry x="89.31" y="1420" width="337.3" height="90" as="geometry" />
        </mxCell>
        <mxCell id="AzaPjYQSyTYs8AsfRoAB-133" style="edgeStyle=orthogonalEdgeStyle;rounded=0;orthogonalLoop=1;jettySize=auto;html=1;exitX=0.5;exitY=0;exitDx=0;exitDy=0;entryX=0;entryY=1;entryDx=0;entryDy=0;fontSize=30;" edge="1" parent="1" source="AzaPjYQSyTYs8AsfRoAB-134">
          <mxGeometry x="-140.5" y="1419" as="geometry">
            <mxPoint x="87.0468363437326" y="1508.999999999999" as="targetPoint" />
          </mxGeometry>
        </mxCell>
        <mxCell id="AzaPjYQSyTYs8AsfRoAB-134" value="leftMargin" style="text;html=1;strokeColor=none;fillColor=none;align=center;verticalAlign=middle;whiteSpace=wrap;rounded=0;dashed=1;fontSize=30;" vertex="1" parent="1">
          <mxGeometry x="39.29610837438418" y="1579" width="95.01420361247943" height="20" as="geometry" />
        </mxCell>
        <mxCell id="AzaPjYQSyTYs8AsfRoAB-136" value="" style="rounded=0;whiteSpace=wrap;html=1;fillColor=#d5e8d4;strokeColor=#82b366;dashed=1;" vertex="1" parent="1">
          <mxGeometry x="1576.05" y="1970" width="360" height="90" as="geometry" />
        </mxCell>
        <mxCell id="AzaPjYQSyTYs8AsfRoAB-137" value="cap" style="text;html=1;strokeColor=none;fillColor=none;align=center;verticalAlign=middle;whiteSpace=wrap;rounded=0;dashed=1;fontSize=30;" vertex="1" parent="1">
          <mxGeometry x="1556.05" y="1920" width="40" height="20" as="geometry" />
        </mxCell>
        <mxCell id="AzaPjYQSyTYs8AsfRoAB-138" style="edgeStyle=orthogonalEdgeStyle;rounded=0;orthogonalLoop=1;jettySize=auto;html=1;exitX=0.5;exitY=1;exitDx=0;exitDy=0;entryX=1;entryY=0;entryDx=0;entryDy=0;fontSize=20;" edge="1" parent="1" source="AzaPjYQSyTYs8AsfRoAB-139" target="AzaPjYQSyTYs8AsfRoAB-136">
          <mxGeometry relative="1" as="geometry" />
        </mxCell>
        <mxCell id="AzaPjYQSyTYs8AsfRoAB-139" value="maxCap" style="text;html=1;strokeColor=none;fillColor=none;align=center;verticalAlign=middle;whiteSpace=wrap;rounded=0;dashed=1;fontSize=30;" vertex="1" parent="1">
          <mxGeometry x="1916.05" y="1920" width="40" height="20" as="geometry" />
        </mxCell>
        <mxCell id="AzaPjYQSyTYs8AsfRoAB-143" value="......" style="rounded=0;whiteSpace=wrap;html=1;fillColor=#d5e8d4;strokeColor=#82b366;fontSize=30;" vertex="1" parent="1">
          <mxGeometry x="1239.29" y="1970" width="336.76" height="90" as="geometry" />
        </mxCell>
        <mxCell id="AzaPjYQSyTYs8AsfRoAB-144" style="edgeStyle=orthogonalEdgeStyle;rounded=0;orthogonalLoop=1;jettySize=auto;html=1;exitX=0.5;exitY=1;exitDx=0;exitDy=0;entryX=1;entryY=0;entryDx=0;entryDy=0;fontSize=20;" edge="1" parent="1" source="AzaPjYQSyTYs8AsfRoAB-137" target="AzaPjYQSyTYs8AsfRoAB-143">
          <mxGeometry x="269.3" y="1970" as="geometry" />
        </mxCell>
        <mxCell id="AzaPjYQSyTYs8AsfRoAB-140" value="&lt;font style=&quot;font-size: 25px&quot;&gt;availableSpaceBeforeHead&lt;br&gt;&lt;span&gt;availableSpaceAfterTail&lt;/span&gt;&lt;br&gt;&lt;/font&gt;" style="text;html=1;strokeColor=none;fillColor=none;align=center;verticalAlign=middle;whiteSpace=wrap;rounded=0;dashed=1;fontSize=30;" vertex="1" parent="1">
          <mxGeometry x="58.66" y="1890" width="414.44" height="80" as="geometry" />
        </mxCell>
        <mxCell id="AzaPjYQSyTYs8AsfRoAB-135" value="" style="rounded=0;whiteSpace=wrap;html=1;fillColor=#e51400;strokeColor=#B20000;fontColor=#ffffff;" vertex="1" parent="1">
          <mxGeometry x="31.06155519008091" y="1970" width="27.600196133748337" height="90" as="geometry" />
        </mxCell>
        <mxCell id="AzaPjYQSyTYs8AsfRoAB-141" value="" style="endArrow=none;html=1;fontSize=30;exitX=1;exitY=0;exitDx=0;exitDy=0;" edge="1" parent="1">
          <mxGeometry x="-0.7100000000000009" y="1920" width="50" height="50" as="geometry">
            <mxPoint x="57.17786981126267" y="1970" as="sourcePoint" />
            <mxPoint x="57.17786981126267" y="1920" as="targetPoint" />
          </mxGeometry>
        </mxCell>
        <mxCell id="AzaPjYQSyTYs8AsfRoAB-142" value="" style="endArrow=none;html=1;fontSize=30;exitX=1;exitY=0;exitDx=0;exitDy=0;" edge="1" parent="1">
          <mxGeometry x="-0.7100000000000009" y="1920" width="50" height="50" as="geometry">
            <mxPoint x="459.83208600937394" y="1970" as="sourcePoint" />
            <mxPoint x="459.83208600937394" y="1920" as="targetPoint" />
          </mxGeometry>
        </mxCell>
        <mxCell id="AzaPjYQSyTYs8AsfRoAB-145" value="rightMargin" style="text;html=1;strokeColor=none;fillColor=none;align=center;verticalAlign=middle;whiteSpace=wrap;rounded=0;dashed=1;fontSize=30;" vertex="1" parent="1">
          <mxGeometry x="1152.7344765256669" y="2130" width="186.55552347433317" height="60" as="geometry" />
        </mxCell>
        <mxCell id="AzaPjYQSyTYs8AsfRoAB-150" value="4Byte" style="rounded=0;whiteSpace=wrap;html=1;fillColor=#e1d5e7;strokeColor=#9673a6;fontSize=15;" vertex="1" parent="1">
          <mxGeometry x="459.3653593846154" y="1970" width="46.27358200511862" height="90" as="geometry" />
        </mxCell>
        <mxCell id="AzaPjYQSyTYs8AsfRoAB-151" value="entry" style="rounded=0;whiteSpace=wrap;html=1;fillColor=#dae8fc;strokeColor=#6c8ebf;fontSize=30;" vertex="1" parent="1">
          <mxGeometry x="968.37476144092" y="1970" width="277.64149203071173" height="90" as="geometry" />
        </mxCell>
        <mxCell id="AzaPjYQSyTYs8AsfRoAB-152" value="4Byte" style="rounded=0;whiteSpace=wrap;html=1;fillColor=#e1d5e7;strokeColor=#9673a6;fontSize=15;" vertex="1" parent="1">
          <mxGeometry x="922.1011794358014" y="1970" width="46.27358200511862" height="90" as="geometry" />
        </mxCell>
        <mxCell id="AzaPjYQSyTYs8AsfRoAB-153" style="edgeStyle=orthogonalEdgeStyle;rounded=0;orthogonalLoop=1;jettySize=auto;html=1;exitX=0.5;exitY=0;exitDx=0;exitDy=0;entryX=0;entryY=1;entryDx=0;entryDy=0;fontSize=30;" edge="1" parent="1" source="AzaPjYQSyTYs8AsfRoAB-154" target="AzaPjYQSyTYs8AsfRoAB-150">
          <mxGeometry x="189.24332442973537" y="1970" as="geometry" />
        </mxCell>
        <mxCell id="AzaPjYQSyTYs8AsfRoAB-154" value="head" style="text;html=1;strokeColor=none;fillColor=none;align=center;verticalAlign=middle;whiteSpace=wrap;rounded=0;dashed=1;fontSize=30;" vertex="1" parent="1">
          <mxGeometry x="402.6802214283451" y="2130" width="112.79185613747664" height="20" as="geometry" />
        </mxCell>
        <mxCell id="AzaPjYQSyTYs8AsfRoAB-155" style="edgeStyle=orthogonalEdgeStyle;rounded=0;orthogonalLoop=1;jettySize=auto;html=1;exitX=0.5;exitY=0;exitDx=0;exitDy=0;entryX=1;entryY=1;entryDx=0;entryDy=0;fontSize=30;" edge="1" parent="1" source="AzaPjYQSyTYs8AsfRoAB-145" target="AzaPjYQSyTYs8AsfRoAB-151">
          <mxGeometry x="189.24332442973537" y="1970" as="geometry" />
        </mxCell>
        <mxCell id="AzaPjYQSyTYs8AsfRoAB-156" value="" style="endArrow=none;html=1;fontSize=30;exitX=1;exitY=0;exitDx=0;exitDy=0;" edge="1" parent="1">
          <mxGeometry x="189.24332442973537" y="1970" width="67.72391473869476" height="50" as="geometry">
            <mxPoint x="1246.0162534716324" y="2115" as="sourcePoint" />
            <mxPoint x="1246.0162534716324" y="2065" as="targetPoint" />
          </mxGeometry>
        </mxCell>
        <mxCell id="AzaPjYQSyTYs8AsfRoAB-157" value="entry" style="rounded=0;whiteSpace=wrap;html=1;fillColor=#dae8fc;strokeColor=#6c8ebf;fontSize=30;" vertex="1" parent="1">
          <mxGeometry x="505.63894138973404" y="1970" width="416.46223804606757" height="90" as="geometry" />
        </mxCell>
        <mxCell id="AzaPjYQSyTYs8AsfRoAB-158" value="......" style="rounded=0;whiteSpace=wrap;html=1;fillColor=#d5e8d4;strokeColor=#82b366;fontSize=30;" vertex="1" parent="1">
          <mxGeometry x="58.661751323829236" y="1970" width="400.4105873511103" height="90" as="geometry" />
        </mxCell>
        <mxCell id="AzaPjYQSyTYs8AsfRoAB-159" style="edgeStyle=orthogonalEdgeStyle;rounded=0;orthogonalLoop=1;jettySize=auto;html=1;exitX=0.5;exitY=0;exitDx=0;exitDy=0;entryX=0;entryY=1;entryDx=0;entryDy=0;fontSize=30;" edge="1" parent="1" source="AzaPjYQSyTYs8AsfRoAB-160">
          <mxGeometry x="-214.1468969986097" y="1969" as="geometry">
            <mxPoint x="55.9751379562701" y="2058.999999999999" as="targetPoint" />
          </mxGeometry>
        </mxCell>
        <mxCell id="AzaPjYQSyTYs8AsfRoAB-160" value="tail&lt;br&gt;leftMargin" style="text;html=1;strokeColor=none;fillColor=none;align=center;verticalAlign=middle;whiteSpace=wrap;rounded=0;dashed=1;fontSize=30;" vertex="1" parent="1">
          <mxGeometry y="2119.5" width="112.79" height="81" as="geometry" />
        </mxCell>
        <mxCell id="AzaPjYQSyTYs8AsfRoAB-163" value="tail移动到head前" style="text;html=1;strokeColor=none;fillColor=none;align=center;verticalAlign=middle;whiteSpace=wrap;rounded=0;dashed=1;fontSize=45;" vertex="1" parent="1">
          <mxGeometry x="734.3" y="1780" width="370" height="20" as="geometry" />
        </mxCell>
        <mxCell id="AzaPjYQSyTYs8AsfRoAB-164" value="pop了若干个元素" style="text;html=1;strokeColor=none;fillColor=none;align=center;verticalAlign=middle;whiteSpace=wrap;rounded=0;dashed=1;fontSize=45;" vertex="1" parent="1">
          <mxGeometry x="787.5799999999999" y="1260" width="370" height="20" as="geometry" />
        </mxCell>
        <mxCell id="AzaPjYQSyTYs8AsfRoAB-166" value="Push了两个元素" style="text;html=1;strokeColor=none;fillColor=none;align=center;verticalAlign=middle;whiteSpace=wrap;rounded=0;dashed=1;fontSize=45;" vertex="1" parent="1">
          <mxGeometry x="790.53" y="490" width="370" height="20" as="geometry" />
        </mxCell>
        <mxCell id="AzaPjYQSyTYs8AsfRoAB-167" value="queue初始化时" style="text;html=1;strokeColor=none;fillColor=none;align=center;verticalAlign=middle;whiteSpace=wrap;rounded=0;dashed=1;fontSize=45;" vertex="1" parent="1">
          <mxGeometry x="810" y="40" width="370" height="20" as="geometry" />
        </mxCell>
        <mxCell id="AzaPjYQSyTYs8AsfRoAB-197" style="edgeStyle=orthogonalEdgeStyle;rounded=0;orthogonalLoop=1;jettySize=auto;html=1;exitX=0.5;exitY=1;exitDx=0;exitDy=0;entryX=0.5;entryY=0;entryDx=0;entryDy=0;fontSize=45;" edge="1" parent="1" source="AzaPjYQSyTYs8AsfRoAB-168" target="AzaPjYQSyTYs8AsfRoAB-194">
          <mxGeometry relative="1" as="geometry" />
        </mxCell>
        <mxCell id="AzaPjYQSyTYs8AsfRoAB-168" value="BigCache" style="rounded=0;whiteSpace=wrap;html=1;fontSize=45;fillColor=#f8cecc;strokeColor=#b85450;" vertex="1" parent="1">
          <mxGeometry x="177.68000000000012" y="2290" width="330.05902880344445" height="180" as="geometry" />
        </mxCell>
        <mxCell id="AzaPjYQSyTYs8AsfRoAB-178" style="edgeStyle=orthogonalEdgeStyle;rounded=0;orthogonalLoop=1;jettySize=auto;html=1;exitX=0.5;exitY=1;exitDx=0;exitDy=0;entryX=0.5;entryY=0;entryDx=0;entryDy=0;fontSize=45;" edge="1" parent="1" source="AzaPjYQSyTYs8AsfRoAB-169" target="AzaPjYQSyTYs8AsfRoAB-171">
          <mxGeometry relative="1" as="geometry" />
        </mxCell>
        <mxCell id="AzaPjYQSyTYs8AsfRoAB-169" value="" style="rounded=0;whiteSpace=wrap;html=1;fontSize=45;fillColor=#e1d5e7;strokeColor=#9673a6;" vertex="1" parent="1">
          <mxGeometry x="689.94" y="2610" width="130.06" height="180" as="geometry" />
        </mxCell>
        <mxCell id="AzaPjYQSyTYs8AsfRoAB-200" style="edgeStyle=orthogonalEdgeStyle;rounded=0;orthogonalLoop=1;jettySize=auto;html=1;exitX=0.5;exitY=1;exitDx=0;exitDy=0;entryX=0.5;entryY=0;entryDx=0;entryDy=0;fontSize=40;" edge="1" parent="1" source="AzaPjYQSyTYs8AsfRoAB-171" target="AzaPjYQSyTYs8AsfRoAB-199">
          <mxGeometry relative="1" as="geometry" />
        </mxCell>
        <mxCell id="AzaPjYQSyTYs8AsfRoAB-210" style="edgeStyle=orthogonalEdgeStyle;rounded=0;orthogonalLoop=1;jettySize=auto;html=1;exitX=0;exitY=0.5;exitDx=0;exitDy=0;fontSize=30;" edge="1" parent="1" source="AzaPjYQSyTYs8AsfRoAB-171" target="AzaPjYQSyTYs8AsfRoAB-203">
          <mxGeometry relative="1" as="geometry" />
        </mxCell>
        <mxCell id="AzaPjYQSyTYs8AsfRoAB-212" style="edgeStyle=orthogonalEdgeStyle;rounded=0;orthogonalLoop=1;jettySize=auto;html=1;exitX=1;exitY=0.5;exitDx=0;exitDy=0;fontSize=30;" edge="1" parent="1" source="AzaPjYQSyTYs8AsfRoAB-171" target="AzaPjYQSyTYs8AsfRoAB-211">
          <mxGeometry relative="1" as="geometry" />
        </mxCell>
        <mxCell id="AzaPjYQSyTYs8AsfRoAB-171" value="CacheShard" style="rounded=0;whiteSpace=wrap;html=1;fontSize=40;fillColor=#e1d5e7;strokeColor=#9673a6;" vertex="1" parent="1">
          <mxGeometry x="614.95" y="2910" width="280.04" height="120" as="geometry" />
        </mxCell>
        <mxCell id="AzaPjYQSyTYs8AsfRoAB-172" value="" style="rounded=0;whiteSpace=wrap;html=1;fontSize=45;fillColor=#dae8fc;strokeColor=#6c8ebf;" vertex="1" parent="1">
          <mxGeometry x="820" y="2610" width="130.06" height="180" as="geometry" />
        </mxCell>
        <mxCell id="AzaPjYQSyTYs8AsfRoAB-173" value="" style="rounded=0;whiteSpace=wrap;html=1;fontSize=45;fillColor=#dae8fc;strokeColor=#6c8ebf;" vertex="1" parent="1">
          <mxGeometry x="950.06" y="2610" width="130.06" height="180" as="geometry" />
        </mxCell>
        <mxCell id="AzaPjYQSyTYs8AsfRoAB-174" value="" style="rounded=0;whiteSpace=wrap;html=1;fontSize=45;fillColor=#dae8fc;strokeColor=#6c8ebf;" vertex="1" parent="1">
          <mxGeometry x="1080.12" y="2610" width="130.06" height="180" as="geometry" />
        </mxCell>
        <mxCell id="AzaPjYQSyTYs8AsfRoAB-175" value="......." style="rounded=0;whiteSpace=wrap;html=1;fontSize=45;fillColor=#dae8fc;strokeColor=#6c8ebf;" vertex="1" parent="1">
          <mxGeometry x="1210.18" y="2610" width="859.82" height="180" as="geometry" />
        </mxCell>
        <mxCell id="AzaPjYQSyTYs8AsfRoAB-176" value="" style="rounded=0;whiteSpace=wrap;html=1;fontSize=45;fillColor=#dae8fc;strokeColor=#6c8ebf;" vertex="1" parent="1">
          <mxGeometry x="2070" y="2610" width="130" height="180" as="geometry" />
        </mxCell>
        <mxCell id="AzaPjYQSyTYs8AsfRoAB-179" value="" style="rounded=0;whiteSpace=wrap;html=1;fillColor=#e51400;strokeColor=#B20000;fontColor=#ffffff;" vertex="1" parent="1">
          <mxGeometry x="878.06" y="3270" width="20" height="90" as="geometry" />
        </mxCell>
        <mxCell id="AzaPjYQSyTYs8AsfRoAB-180" value="......." style="rounded=0;whiteSpace=wrap;html=1;fillColor=#d5e8d4;strokeColor=#82b366;fontSize=30;" vertex="1" parent="1">
          <mxGeometry x="1900" y="3271" width="528.06" height="90" as="geometry" />
        </mxCell>
        <mxCell id="AzaPjYQSyTYs8AsfRoAB-181" value="" style="rounded=0;whiteSpace=wrap;html=1;fillColor=#d5e8d4;strokeColor=#82b366;dashed=1;" vertex="1" parent="1">
          <mxGeometry x="2428.0600000000004" y="3271" width="360" height="90" as="geometry" />
        </mxCell>
        <mxCell id="AzaPjYQSyTYs8AsfRoAB-182" style="edgeStyle=orthogonalEdgeStyle;rounded=0;orthogonalLoop=1;jettySize=auto;html=1;exitX=0.5;exitY=1;exitDx=0;exitDy=0;entryX=1;entryY=0;entryDx=0;entryDy=0;fontSize=20;" edge="1" parent="1" source="AzaPjYQSyTYs8AsfRoAB-183" target="AzaPjYQSyTYs8AsfRoAB-180">
          <mxGeometry relative="1" as="geometry" />
        </mxCell>
        <mxCell id="AzaPjYQSyTYs8AsfRoAB-183" value="cap" style="text;html=1;strokeColor=none;fillColor=none;align=center;verticalAlign=middle;whiteSpace=wrap;rounded=0;dashed=1;fontSize=30;" vertex="1" parent="1">
          <mxGeometry x="2408.0600000000004" y="3221" width="40" height="20" as="geometry" />
        </mxCell>
        <mxCell id="AzaPjYQSyTYs8AsfRoAB-186" style="edgeStyle=orthogonalEdgeStyle;rounded=0;orthogonalLoop=1;jettySize=auto;html=1;exitX=0.5;exitY=1;exitDx=0;exitDy=0;entryX=1;entryY=0;entryDx=0;entryDy=0;fontSize=20;" edge="1" parent="1" source="AzaPjYQSyTYs8AsfRoAB-187" target="AzaPjYQSyTYs8AsfRoAB-181">
          <mxGeometry relative="1" as="geometry" />
        </mxCell>
        <mxCell id="AzaPjYQSyTYs8AsfRoAB-187" value="maxCap" style="text;html=1;strokeColor=none;fillColor=none;align=center;verticalAlign=middle;whiteSpace=wrap;rounded=0;dashed=1;fontSize=30;" vertex="1" parent="1">
          <mxGeometry x="2768.0600000000004" y="3221" width="40" height="20" as="geometry" />
        </mxCell>
        <mxCell id="AzaPjYQSyTYs8AsfRoAB-192" value="" style="rounded=0;whiteSpace=wrap;html=1;fontSize=45;fillColor=#dae8fc;strokeColor=#6c8ebf;" vertex="1" parent="1">
          <mxGeometry x="559.8800000000001" y="2610" width="130.06" height="180" as="geometry" />
        </mxCell>
        <mxCell id="AzaPjYQSyTYs8AsfRoAB-198" style="edgeStyle=orthogonalEdgeStyle;rounded=0;orthogonalLoop=1;jettySize=auto;html=1;exitX=0.5;exitY=1;exitDx=0;exitDy=0;entryX=0;entryY=0.5;entryDx=0;entryDy=0;fontSize=45;" edge="1" parent="1" source="AzaPjYQSyTYs8AsfRoAB-194" target="AzaPjYQSyTYs8AsfRoAB-192">
          <mxGeometry relative="1" as="geometry" />
        </mxCell>
        <mxCell id="AzaPjYQSyTYs8AsfRoAB-194" value="BigCache.shards（数组）" style="text;html=1;strokeColor=none;fillColor=none;align=center;verticalAlign=middle;whiteSpace=wrap;rounded=0;fontSize=45;" vertex="1" parent="1">
          <mxGeometry x="53.71" y="2530" width="577.29" height="50" as="geometry" />
        </mxCell>
        <mxCell id="AzaPjYQSyTYs8AsfRoAB-196" style="edgeStyle=orthogonalEdgeStyle;rounded=0;orthogonalLoop=1;jettySize=auto;html=1;exitX=0;exitY=0.5;exitDx=0;exitDy=0;entryX=1;entryY=0.5;entryDx=0;entryDy=0;fontSize=45;" edge="1" parent="1" source="AzaPjYQSyTYs8AsfRoAB-195" target="AzaPjYQSyTYs8AsfRoAB-168">
          <mxGeometry relative="1" as="geometry" />
        </mxCell>
        <mxCell id="AzaPjYQSyTYs8AsfRoAB-195" value="Config" style="text;html=1;strokeColor=none;fillColor=none;align=center;verticalAlign=middle;whiteSpace=wrap;rounded=0;fontSize=45;" vertex="1" parent="1">
          <mxGeometry x="630" y="2349" width="190" height="62" as="geometry" />
        </mxCell>
        <mxCell id="AzaPjYQSyTYs8AsfRoAB-201" style="edgeStyle=orthogonalEdgeStyle;rounded=0;orthogonalLoop=1;jettySize=auto;html=1;exitX=0.5;exitY=1;exitDx=0;exitDy=0;entryX=0;entryY=0.5;entryDx=0;entryDy=0;fontSize=40;" edge="1" parent="1" source="AzaPjYQSyTYs8AsfRoAB-199" target="AzaPjYQSyTYs8AsfRoAB-179">
          <mxGeometry relative="1" as="geometry" />
        </mxCell>
        <mxCell id="AzaPjYQSyTYs8AsfRoAB-199" value="CacheShard.entries（BytesQueue字节队列）" style="text;html=1;strokeColor=none;fillColor=none;align=center;verticalAlign=middle;whiteSpace=wrap;rounded=0;fontSize=45;" vertex="1" parent="1">
          <mxGeometry x="259.91" y="3100" width="990.12" height="60" as="geometry" />
        </mxCell>
        <mxCell id="AzaPjYQSyTYs8AsfRoAB-202" value="2^n个cacheShard" style="text;html=1;strokeColor=none;fillColor=none;align=center;verticalAlign=middle;whiteSpace=wrap;rounded=0;fontSize=45;" vertex="1" parent="1">
          <mxGeometry x="1140" y="2520" width="474.36" height="60" as="geometry" />
        </mxCell>
        <mxCell id="AzaPjYQSyTYs8AsfRoAB-203" value="RwLock读写锁" style="text;html=1;strokeColor=none;fillColor=none;align=center;verticalAlign=middle;whiteSpace=wrap;rounded=0;fontSize=30;" vertex="1" parent="1">
          <mxGeometry x="319.39" y="2940" width="214.45" height="60" as="geometry" />
        </mxCell>
        <mxCell id="AzaPjYQSyTYs8AsfRoAB-205" value="已清空区域" style="rounded=0;whiteSpace=wrap;html=1;fillColor=#d5e8d4;strokeColor=#82b366;fontSize=30;" vertex="1" parent="1">
          <mxGeometry x="898.0600000000001" y="3271" width="217.9" height="90" as="geometry" />
        </mxCell>
        <mxCell id="AzaPjYQSyTYs8AsfRoAB-206" style="edgeStyle=orthogonalEdgeStyle;rounded=0;orthogonalLoop=1;jettySize=auto;html=1;exitX=0.5;exitY=1;exitDx=0;exitDy=0;entryX=1;entryY=0;entryDx=0;entryDy=0;fontSize=20;" edge="1" parent="1" source="AzaPjYQSyTYs8AsfRoAB-207">
          <mxGeometry relative="1" as="geometry">
            <mxPoint x="1903.0500000000004" y="3271" as="targetPoint" />
          </mxGeometry>
        </mxCell>
        <mxCell id="AzaPjYQSyTYs8AsfRoAB-207" value="tail" style="text;html=1;strokeColor=none;fillColor=none;align=center;verticalAlign=middle;whiteSpace=wrap;rounded=0;dashed=1;fontSize=30;" vertex="1" parent="1">
          <mxGeometry x="1883.0500000000004" y="3180" width="40" height="20" as="geometry" />
        </mxCell>
        <mxCell id="AzaPjYQSyTYs8AsfRoAB-208" style="edgeStyle=orthogonalEdgeStyle;rounded=0;orthogonalLoop=1;jettySize=auto;html=1;exitX=0.5;exitY=1;exitDx=0;exitDy=0;entryX=1;entryY=0;entryDx=0;entryDy=0;fontSize=20;" edge="1" parent="1" source="AzaPjYQSyTYs8AsfRoAB-209">
          <mxGeometry relative="1" as="geometry">
            <mxPoint x="1115.9600000000005" y="3270" as="targetPoint" />
          </mxGeometry>
        </mxCell>
        <mxCell id="AzaPjYQSyTYs8AsfRoAB-209" value="head" style="text;html=1;strokeColor=none;fillColor=none;align=center;verticalAlign=middle;whiteSpace=wrap;rounded=0;dashed=1;fontSize=30;" vertex="1" parent="1">
          <mxGeometry x="1095.9600000000005" y="3180" width="40" height="20" as="geometry" />
        </mxCell>
        <mxCell id="AzaPjYQSyTYs8AsfRoAB-233" style="edgeStyle=orthogonalEdgeStyle;rounded=0;orthogonalLoop=1;jettySize=auto;html=1;exitX=1;exitY=0.5;exitDx=0;exitDy=0;entryX=0;entryY=0.5;entryDx=0;entryDy=0;fontSize=30;" edge="1" parent="1" source="AzaPjYQSyTYs8AsfRoAB-211" target="AzaPjYQSyTYs8AsfRoAB-228">
          <mxGeometry relative="1" as="geometry" />
        </mxCell>
        <mxCell id="AzaPjYQSyTYs8AsfRoAB-211" value="hashMap" style="text;html=1;strokeColor=none;fillColor=none;align=center;verticalAlign=middle;whiteSpace=wrap;rounded=0;fontSize=45;" vertex="1" parent="1">
          <mxGeometry x="950.06" y="2940" width="199.94" height="60" as="geometry" />
        </mxCell>
        <mxCell id="AzaPjYQSyTYs8AsfRoAB-220" value="4Byte" style="rounded=0;whiteSpace=wrap;html=1;fillColor=#e1d5e7;strokeColor=#9673a6;fontSize=15;" vertex="1" parent="1">
          <mxGeometry x="1115.9553593846153" y="3271" width="46.27358200511862" height="90" as="geometry" />
        </mxCell>
        <mxCell id="AzaPjYQSyTYs8AsfRoAB-221" value="entry" style="rounded=0;whiteSpace=wrap;html=1;fillColor=#dae8fc;strokeColor=#6c8ebf;fontSize=30;" vertex="1" parent="1">
          <mxGeometry x="1624.96476144092" y="3271" width="277.64149203071173" height="90" as="geometry" />
        </mxCell>
        <mxCell id="AzaPjYQSyTYs8AsfRoAB-222" value="4Byte" style="rounded=0;whiteSpace=wrap;html=1;fillColor=#e1d5e7;strokeColor=#9673a6;fontSize=15;" vertex="1" parent="1">
          <mxGeometry x="1578.6911794358016" y="3271" width="46.27358200511862" height="90" as="geometry" />
        </mxCell>
        <mxCell id="AzaPjYQSyTYs8AsfRoAB-224" value="entry" style="rounded=0;whiteSpace=wrap;html=1;fillColor=#dae8fc;strokeColor=#6c8ebf;fontSize=30;" vertex="1" parent="1">
          <mxGeometry x="1162.2289413897342" y="3271" width="416.46223804606757" height="90" as="geometry" />
        </mxCell>
        <mxCell id="AzaPjYQSyTYs8AsfRoAB-232" value="" style="group" vertex="1" connectable="0" parent="1">
          <mxGeometry x="1261" y="2865" width="382.18" height="210" as="geometry" />
        </mxCell>
        <mxCell id="AzaPjYQSyTYs8AsfRoAB-228" value="hashKey1" style="rounded=0;whiteSpace=wrap;html=1;fillColor=#ffe6cc;strokeColor=#d79b00;fontSize=30;" vertex="1" parent="AzaPjYQSyTYs8AsfRoAB-232">
          <mxGeometry x="1" y="70" width="252.17999999999998" height="70" as="geometry" />
        </mxCell>
        <mxCell id="AzaPjYQSyTYs8AsfRoAB-229" value="index" style="rounded=0;whiteSpace=wrap;html=1;fillColor=#ffe6cc;strokeColor=#d79b00;fontSize=30;" vertex="1" parent="AzaPjYQSyTYs8AsfRoAB-232">
          <mxGeometry x="253.18000000000004" y="70" width="129.99999999999997" height="70" as="geometry" />
        </mxCell>
        <mxCell id="AzaPjYQSyTYs8AsfRoAB-230" value="hashKey2" style="rounded=0;whiteSpace=wrap;html=1;fillColor=#ffe6cc;strokeColor=#d79b00;fontSize=30;" vertex="1" parent="AzaPjYQSyTYs8AsfRoAB-232">
          <mxGeometry x="1" y="140" width="252.17999999999998" height="70" as="geometry" />
        </mxCell>
        <mxCell id="AzaPjYQSyTYs8AsfRoAB-231" value="index" style="rounded=0;whiteSpace=wrap;html=1;fillColor=#ffe6cc;strokeColor=#d79b00;fontSize=30;" vertex="1" parent="AzaPjYQSyTYs8AsfRoAB-232">
          <mxGeometry x="253.18000000000004" y="140" width="129.99999999999997" height="70" as="geometry" />
        </mxCell>
        <mxCell id="AzaPjYQSyTYs8AsfRoAB-234" style="edgeStyle=orthogonalEdgeStyle;rounded=0;orthogonalLoop=1;jettySize=auto;html=1;exitX=0.5;exitY=1;exitDx=0;exitDy=0;entryX=0;entryY=0;entryDx=0;entryDy=0;fontSize=30;strokeWidth=1;dashed=1;strokeColor=#FF9933;" edge="1" parent="1" source="AzaPjYQSyTYs8AsfRoAB-231" target="AzaPjYQSyTYs8AsfRoAB-222">
          <mxGeometry relative="1" as="geometry" />
        </mxCell>
        <mxCell id="AzaPjYQSyTYs8AsfRoAB-235" style="edgeStyle=orthogonalEdgeStyle;rounded=0;orthogonalLoop=1;jettySize=auto;html=1;exitX=1;exitY=0.5;exitDx=0;exitDy=0;fontSize=30;entryX=0;entryY=0;entryDx=0;entryDy=0;strokeWidth=1;dashed=1;strokeColor=#FF9933;" edge="1" parent="1" source="AzaPjYQSyTYs8AsfRoAB-229" target="AzaPjYQSyTYs8AsfRoAB-220">
          <mxGeometry relative="1" as="geometry">
            <mxPoint x="1410" y="3180" as="targetPoint" />
            <Array as="points">
              <mxPoint x="1663" y="2970" />
              <mxPoint x="1663" y="3240" />
              <mxPoint x="1116" y="3240" />
            </Array>
          </mxGeometry>
        </mxCell>
      </root>
    </mxGraphModel>
  </diagram>
</mxfile>
